PathFileType	4	(X/Y/Z)	Patient4_TMGait_0pt7_01_right_39.trc.trc
DataRate	CameraRate	NumFrames	NumMarkers	Units	OrigDataRate	OrigDataStartFrame	OrigNumFrames
86.419753086420	86.419753086420	6	33	mm	86.419753086420	71	       141
Frame#	Time	Sacral			L.Shoulder			Chest			R.Shoulder			Neck			R.ASIS			L.ASIS			R.Thigh.Superior			R.Thigh.Lateral			R.Thigh.Inferior			R.Patella			L.Thigh.Superior			L.Thigh.Lateral			L.Thigh.Inferior			L.Patella			L.Shank.Superior			L.Shank.Lateral			L.Shank.Inferior			R.Shank.Superior			R.Shank.Lateral			R.Shank.Inferior			R.Heel			R.Midfoot.Superior			R.Midfoot.Lateral			R.Toe			L.Heel			L.Midfoot.Lateral			L.Midfoot.Superior			L.Toe			L.Elbow			L.Wrist			R.Elbow			R.Wrist			
		X1	Y1	Z1	X2	Y2	Z2	X3	Y3	Z3	X4	Y4	Z4	X5	Y5	Z5	X6	Y6	Z6	X7	Y7	Z7	X8	Y8	Z8	X9	Y9	Z9	X10	Y10	Z10	X11	Y11	Z11	X12	Y12	Z12	X13	Y13	Z13	X14	Y14	Z14	X15	Y15	Z15	X16	Y16	Z16	X17	Y17	Z17	X18	Y18	Z18	X19	Y19	Z19	X20	Y20	Z20	X21	Y21	Z21	X22	Y22	Z22	X23	Y23	Z23	X24	Y24	Z24	X25	Y25	Z25	X26	Y26	Z26	X27	Y27	Z27	X28	Y28	Z28	X29	Y29	Z29	X30	Y30	Z30	X31	Y31	Z31	X32	Y32	Z32	X33	Y33	Z33	

71	45.390000000000	865.898253185150	997.325839214977	513.223508520767	1016.003697654430	1419.040912264557	305.167257188203	1147.093686485712	1347.678208426556	443.891508026713	1100.632114091339	1425.639557306704	628.940358814588	1046.783147050400	1479.346837646652	458.177910212839	1100.491619348630	927.879328445494	598.846682992449	1054.688185410364	944.629671228949	326.879632829794	1091.619938803481	713.651002156751	574.195653513363	989.229868724521	621.991888041047	643.389689414197	1041.074592931550	554.993953941684	559.240478489001	1017.874714677930	468.391014167891	564.449466651511	1133.566923804284	766.095600903534	354.635016501048	1079.897969003277	635.084468278154	283.609960146375	1188.222050379731	579.350882295444	338.223022917240	1213.889114712728	514.842829083147	336.777499579546	1200.198579763498	441.565944326309	325.970453649183	1135.770481720761	309.482865410039	280.122132606808	1229.113693203307	214.250016694942	330.888902132456	974.504046438770	385.898269115964	574.946915613079	888.494486985676	297.443645702894	642.841543643427	905.667966667726	197.113530334195	577.991082338011	746.766259599626	44.573560728124	553.854377039526	918.992874560001	95.712277726451	587.188931594707	830.206691396112	36.973921766008	627.780648282341	1038.743076950963	40.521672152037	616.012890897780	1151.893148239902	38.203969472441	371.870769112923	1224.105541984954	41.368763048327	290.021088499964	1296.421693989827	115.895015366788	310.487793519132	1429.478745136372	82.138277783723	282.000420753053	834.001242939429	1121.352206290077	218.657711393921	768.390338790409	871.055278816210	258.137075610911	1281.091746519670	1140.970926720138	734.714592156681	1497.942602089785	1227.702602861118	638.852782344460	
72	45.401571428571	867.297145391309	995.657671904001	510.481485327159	1015.710514252653	1417.577377714801	302.554705196924	1147.323681621537	1346.832983678881	441.205902747270	1100.582664251012	1424.598738403016	626.361014858559	1046.414545757593	1478.132699858502	455.448287303704	1102.006087213077	926.253390115018	596.321255080331	1056.404059520801	943.493817897173	324.468842828152	1092.637314992977	711.886207679161	571.967324001649	989.643194529779	620.572301962637	641.046009987303	1041.642204789931	552.995506285777	557.327585504255	1017.734133180964	465.592042278894	562.607807301483	1135.901705587146	764.443165550177	352.118268513892	1080.296119808394	632.982316527621	283.109289183536	1188.890590968067	577.377292998221	337.324427206782	1213.155817335460	511.904458039235	337.029685468185	1199.020077960626	438.454163718730	326.343280982912	1132.999858168524	307.141410232309	280.763763984313	1224.467079291544	210.852153784504	332.439874820683	972.469865175125	383.966202775659	573.259573464146	884.890796519455	297.437693679591	641.820318143857	899.908960093572	196.586410885502	577.442029510500	738.723865875066	45.811180783010	554.193022685120	911.292611273440	95.807277041139	587.218205531699	822.252501292235	37.464924662348	628.027366065602	1030.749190266114	40.020193310292	616.158708052027	1143.415054976811	37.703644818066	373.823854314396	1215.510367775855	39.269401997332	291.701594752739	1290.134197933282	111.127210556294	312.855480177432	1422.239764289114	73.451116510534	283.878957965335	833.349975016151	1119.995819764102	217.327856757055	768.787896714678	869.460066158377	257.538485000398	1280.661091114302	1139.399044186299	732.242125461268	1495.256578289921	1230.022376338783	635.702617655163	
73	45.413142857143	868.608247611334	994.097598859722	507.636706409614	1015.505309519570	1416.222091002622	299.877277130450	1147.612234600877	1346.091481337347	438.510283565610	1100.532812101730	1423.655058057590	623.799548524418	1046.169611978016	1477.076291361868	452.653954888359	1103.483301502039	924.770199855350	593.740009879870	1058.101125222788	942.573859126411	322.031632756054	1093.831089370479	710.340147215989	569.702354853283	990.343351182622	619.288073490435	638.634672766520	1042.645818310318	551.158397775563	555.396213276453	1018.179639300179	462.791501110258	560.906293383564	1138.441125865288	763.169674917854	349.800765900387	1081.496473161534	631.558320545093	282.146706770844	1190.065744423167	575.925519307837	336.431149141807	1213.004515727767	509.482839725995	337.035254156204	1198.368608339074	435.835451547461	326.429471769019	1130.838564940522	305.442590533165	280.566874425836	1219.944361193937	207.889256535756	333.471438788264	970.812640199277	382.190942596582	571.682109099504	881.537747707053	297.735239075211	640.828670717201	894.391110374777	196.356723472292	577.000849899216	730.761643191759	47.655469509910	554.614600841802	903.812827047640	96.010436767521	587.364873874953	814.367889700433	38.227843580521	628.304628043442	1022.792738476155	39.518616476182	616.305092259709	1134.672357169095	37.498214748504	374.944863318434	1206.810689386040	37.620470844649	292.704555350007	1283.603701471286	106.933066375515	314.708593318627	1414.832121634976	65.536018078618	285.512699855528	833.534276861538	1118.172722499963	215.767393001933	770.461850157592	867.249606884516	256.408421813842	1279.543327077611	1137.269372816297	729.952740496225	1492.233823531594	1231.095338374812	632.834554519600	
74	45.424714285714	869.814506459931	992.746331878236	504.719092503748	1015.387008487299	1415.076041266681	297.158646974623	1147.949775837844	1345.528956803298	435.814580793869	1100.511471017428	1422.898395653747	621.257936220937	1046.075593715363	1476.265553286117	449.821401452355	1104.888141263388	923.532436852411	591.075376616999	1059.719120456340	941.965367635668	319.523472939349	1095.200134501730	709.111663511865	567.378154673562	991.399767516007	618.207004920853	636.170232908336	1044.162689367981	549.572522142362	553.448088052587	1019.331961119727	460.071599369716	559.407651687814	1141.063282758816	762.382934593920	347.684083399757	1083.429388968969	630.869227597374	280.714524620086	1191.641701274831	575.043243316872	335.501912104997	1213.361984142862	507.660946497076	336.745810319884	1198.181491858636	433.774022462014	326.227556544620	1129.251678859423	304.411732279885	279.614977235213	1215.583632868855	205.456129717118	334.020479882436	969.654930150334	380.651755649093	570.286734379748	878.526425783986	298.440298757697	639.886241007135	889.216573693906	196.515672450182	576.706198355930	722.942974089233	50.268762391561	555.121441876941	896.636186153579	96.347461530320	587.661038179328	806.583580409978	39.347078132759	628.611283405137	1014.877871880655	39.041786396173	616.440857523239	1125.937266879604	37.527387741155	375.365984049522	1198.228236733145	36.439318497579	293.128348035251	1276.913481585382	103.502863227619	316.028670209359	1407.381152106927	58.831324958419	286.819458539562	834.599001668554	1115.956696475422	213.989218259846	773.425216952663	864.507440064588	254.710851014281	1277.690856578641	1134.645653761749	727.811025449503	1488.944357674503	1230.869738325403	630.266488987371	
75	45.436285714286	870.912571655447	991.698742308413	501.742251521814	1015.353011430397	1414.237960912679	294.421767159353	1148.322877195679	1345.218907145691	433.127686664269	1100.536667232513	1422.414218129266	618.732973379537	1046.144191205378	1475.778998402858	446.979863323248	1106.190622475804	922.637200409822	588.297332251828	1061.220439814579	941.746699208512	316.893733320918	1096.751783566375	708.288259974347	564.971801849022	992.891362837173	617.384988864822	633.672303791707	1046.286101752901	548.316111869176	551.495125576184	1021.318551794609	457.513263502553	558.178988156017	1143.648989724035	762.146301980406	345.728761959499	1085.925791296245	630.886383330971	278.874558646090	1193.454949593660	574.704898184083	334.500987197811	1214.079994260054	506.435219199448	336.171723445417	1198.310148641310	432.258818284694	325.786511946476	1128.080215873289	304.003125841494	278.089810273933	1211.325940357953	203.572874986590	334.184268948911	969.137839957357	379.412644090747	569.145601944839	875.969344993802	299.649924504194	639.012665875126	884.505709993470	197.145501827549	576.597996748372	715.353263360477	53.811011066419	555.710786461085	889.850649199061	96.841537605675	588.135163478700	798.940247662014	40.915410544723	628.945953950674	1007.006272055261	38.614574685938	616.554347090650	1117.359215891715	37.715780751543	375.263893271343	1189.860304476523	35.695395641039	293.111211633921	1270.077415513123	100.914484185113	316.861387641364	1399.926374015279	53.567353879460	287.762126059924	836.563255075958	1113.450081220404	212.011494657401	777.688550629674	861.345303238970	252.414691955583	1275.046727493969	1131.618636484633	725.774134247243	1485.447288110421	1229.295555328968	628.011228022882	
76	45.447857142857	871.909616766279	991.030561944512	498.701819358655	1015.400059305207	1413.791816605049	291.685707568534	1148.715428574113	1345.224037440364	430.457410094576	1100.609104550427	1422.271404162594	616.218184656505	1046.367840032645	1475.675137851300	444.156738392642	1107.368742546157	922.162802476286	585.380912415376	1062.594148127264	941.967378775325	314.098874288033	1098.505255822522	707.934465056533	562.470670200959	994.898035694686	616.858406290481	631.166981680103	1049.117041063484	547.445965513021	549.563778731843	1024.258604175094	455.189014443474	557.284252005719	1146.090368872485	762.453202396642	343.858627079418	1088.714734449108	631.493136172591	276.742760648042	1195.286357956128	574.807759715147	333.403689579830	1214.941816242472	505.721897117671	335.377156699897	1198.534765019350	431.215872997586	325.187644856938	1127.077625690459	304.108017537568	276.232935732703	1207.055066095164	202.196279267800	334.093008814159	969.408093203658	378.515166411679	568.320871540199	873.993692091037	301.444250006815	638.226078769088	880.389356273500	198.312471202824	576.713150137344	708.100420951444	58.429735129994	556.375964930296	883.542899221795	97.512544255418	588.807921389736	791.490009143934	43.031641679793	629.307370903722	999.176982325823	38.255841785252	616.635013281746	1108.992310153913	37.987769068819	374.826412353938	1181.716826643989	35.322169606337	292.805071337286	1263.079791122062	99.140633896690	317.299223196490	1392.459714414915	49.765262223202	288.352758688141	839.411138570362	1110.776603296901	209.855537913027	783.255127662209	857.896161979643	249.497339030942	1271.552579247282	1128.300378392974	723.795768183678	1481.785310215176	1226.329502306677	626.074772237630	
